<svg viewBox="0 0 15.8333 15.8334" xmlns="http://www.w3.org/2000/svg" xmlns:xlink="http://www.w3.org/1999/xlink" width="15.833328" height="15.833374" fill="none" customFrame="#000000">
	<path id="Vector" d="M7.91659 5.54154C7.2867 5.54154 6.68261 5.79177 6.23721 6.23717C5.79181 6.68257 5.54159 7.28666 5.54159 7.91655C5.54159 8.54643 5.79181 9.15053 6.23721 9.59592C6.68261 10.0413 7.2867 10.2915 7.91659 10.2915C8.54648 10.2915 9.15057 10.0413 9.59597 9.59592C10.0414 9.15053 10.2916 8.54643 10.2916 7.91655C10.2916 7.28666 10.0414 6.68257 9.59597 6.23717C9.15057 5.79177 8.54648 5.54154 7.91659 5.54154ZM7.91659 3.95821C8.96641 3.95821 9.97322 4.37525 10.7156 5.11758C11.4579 5.85991 11.8749 6.86673 11.8749 7.91655C11.8749 8.96636 11.4579 9.97318 10.7156 10.7155C9.97322 11.4578 8.96641 11.8749 7.91659 11.8749C6.86678 11.8749 5.85996 11.4578 5.11763 10.7155C4.3753 9.97318 3.95826 8.96636 3.95826 7.91655C3.95826 6.86673 4.3753 5.85991 5.11763 5.11758C5.85996 4.37525 6.86678 3.95821 7.91659 3.95821ZM13.0624 3.76029C13.0624 4.02275 12.9582 4.27445 12.7726 4.46004C12.587 4.64562 12.3353 4.74988 12.0728 4.74988C11.8104 4.74988 11.5587 4.64562 11.3731 4.46004C11.1875 4.27445 11.0833 4.02275 11.0833 3.76029C11.0833 3.49784 11.1875 3.24614 11.3731 3.06055C11.5587 2.87497 11.8104 2.77071 12.0728 2.77071C12.3353 2.77071 12.587 2.87497 12.7726 3.06055C12.9582 3.24614 13.0624 3.49784 13.0624 3.76029ZM7.91659 1.58321C5.95801 1.58321 5.63817 1.58875 4.72697 1.62913C4.1063 1.65842 3.68988 1.74154 3.30355 1.89196C2.95997 2.02496 2.71217 2.18409 2.44855 2.4485C2.20076 2.6879 2.01025 2.98017 1.89122 3.3035C1.7408 3.69142 1.65767 4.10705 1.62917 4.72692C1.58801 5.60092 1.58326 5.9065 1.58326 7.91655C1.58326 9.87513 1.5888 10.195 1.62917 11.1062C1.65847 11.726 1.74159 12.1433 1.89122 12.5288C2.0258 12.8732 2.18413 13.121 2.44697 13.3838C2.71376 13.6498 2.96155 13.8089 3.30197 13.9403C3.69305 14.0915 4.10947 14.1755 4.72697 14.204C5.60097 14.2451 5.90655 14.2499 7.91659 14.2499C9.87517 14.2499 10.195 14.2443 11.1062 14.204C11.7253 14.1747 12.1425 14.0915 12.5288 13.9419C12.8716 13.8081 13.121 13.649 13.3838 13.3862C13.6506 13.1194 13.8098 12.8716 13.9412 12.5312C14.0916 12.1409 14.1755 11.7237 14.204 11.1062C14.2452 10.2322 14.2499 9.92659 14.2499 7.91655C14.2499 5.95796 14.2444 5.63813 14.204 4.72692C14.1747 4.10784 14.0916 3.68984 13.9412 3.3035C13.8219 2.9805 13.6317 2.68835 13.3846 2.4485C13.1453 2.20059 12.853 2.01005 12.5296 1.89117C12.1417 1.74075 11.7253 1.65763 11.1062 1.62913C10.2322 1.58796 9.92663 1.58321 7.91659 1.58321ZM7.91659 -0.00012207C10.0675 -0.00012207 10.3359 0.00779455 11.1798 0.0473779C12.023 0.0869612 12.5969 0.21917 13.102 0.415503C13.6245 0.616586 14.0647 0.88892 14.5048 1.32829C14.9074 1.72405 15.2189 2.20276 15.4176 2.73113C15.6132 3.23542 15.7462 3.81017 15.7858 4.6533C15.823 5.49721 15.8333 5.76559 15.8333 7.91655C15.8333 10.0675 15.8253 10.3359 15.7858 11.1798C15.7462 12.0229 15.6132 12.5969 15.4176 13.102C15.2195 13.6306 14.9079 14.1095 14.5048 14.5048C14.109 14.9072 13.6303 15.2187 13.102 15.4176C12.5977 15.6131 12.023 15.7461 11.1798 15.7857C10.3359 15.8229 10.0675 15.8332 7.91659 15.8332C5.76563 15.8332 5.49726 15.8253 4.65334 15.7857C3.81022 15.7461 3.23626 15.6131 2.73117 15.4176C2.2026 15.2193 1.7238 14.9077 1.32834 14.5048C0.925704 14.1091 0.614203 13.6304 0.415549 13.102C0.219215 12.5977 0.087007 12.0229 0.0474237 11.1798C0.0102153 10.3359 -7.62939e-05 10.0675 -7.62939e-05 7.91655C-7.62939e-05 5.76559 0.00784033 5.49721 0.0474237 4.6533C0.087007 3.80938 0.219215 3.23621 0.415549 2.73113C0.613652 2.20244 0.925227 1.72359 1.32834 1.32829C1.72391 0.925519 2.20268 0.613997 2.73117 0.415503C3.23626 0.21917 3.80942 0.0869612 4.65334 0.0473779C5.49726 0.0101696 5.76563 -0.00012207 7.91659 -0.00012207Z" fill="rgb(224,190,162)" fill-rule="nonzero" />
</svg>
