<svg viewBox="0 0 19.0476 25" xmlns="http://www.w3.org/2000/svg" xmlns:xlink="http://www.w3.org/1999/xlink" width="19.047607" height="25.000000" fill="none" customFrame="#000000">
	<path id="Vector" d="M0 25C0 22.4741 1.0034 20.0517 2.78946 18.2656C4.57552 16.4796 6.99794 15.4762 9.52381 15.4762C12.0497 15.4762 14.4721 16.4796 16.2582 18.2656C18.0442 20.0517 19.0476 22.4741 19.0476 25L16.6667 25C16.6667 23.1056 15.9141 21.2888 14.5746 19.9492C13.235 18.6097 11.4182 17.8571 9.52381 17.8571C7.6294 17.8571 5.81259 18.6097 4.47305 19.9492C3.1335 21.2888 2.38095 23.1056 2.38095 25L0 25ZM9.52381 14.2857C5.57738 14.2857 2.38095 11.0893 2.38095 7.14286C2.38095 3.19643 5.57738 0 9.52381 0C13.4702 0 16.6667 3.19643 16.6667 7.14286C16.6667 11.0893 13.4702 14.2857 9.52381 14.2857ZM9.52381 11.9048C12.1548 11.9048 14.2857 9.77381 14.2857 7.14286C14.2857 4.5119 12.1548 2.38095 9.52381 2.38095C6.89286 2.38095 4.7619 4.5119 4.7619 7.14286C4.7619 9.77381 6.89286 11.9048 9.52381 11.9048Z" fill="currencyColor" fill-rule="nonzero" />
</svg>
