<svg viewBox="0 0 17.1309 14.25" xmlns="http://www.w3.org/2000/svg" xmlns:xlink="http://www.w3.org/1999/xlink" width="17.130859" height="14.250000" fill="none" customFrame="#000000">
	<path id="Vector" d="M8.56504 0C12.8337 0 16.3851 3.07167 17.1301 7.125C16.3859 11.1783 12.8337 14.25 8.56504 14.25C4.29638 14.25 0.744958 11.1783 0 7.125C0.744167 3.07167 4.29638 0 8.56504 0ZM8.56504 12.6667C10.1796 12.6663 11.7463 12.1179 13.0086 11.1112C14.2708 10.1045 15.154 8.69905 15.5135 7.125C15.1527 5.5522 14.269 4.14834 13.0068 3.14294C11.7446 2.13754 10.1787 1.59008 8.56504 1.59008C6.95139 1.59008 5.38546 2.13754 4.1233 3.14294C2.86113 4.14834 1.9774 5.5522 1.61658 7.125C1.97608 8.69905 2.85924 10.1045 4.12153 11.1112C5.38382 12.1179 6.95046 12.6663 8.56504 12.6667ZM8.56504 10.6875C7.62021 10.6875 6.71407 10.3122 6.04597 9.64407C5.37788 8.97597 5.00254 8.06983 5.00254 7.125C5.00254 6.18017 5.37788 5.27403 6.04597 4.60593C6.71407 3.93783 7.62021 3.5625 8.56504 3.5625C9.50988 3.5625 10.416 3.93783 11.0841 4.60593C11.7522 5.27403 12.1275 6.18017 12.1275 7.125C12.1275 8.06983 11.7522 8.97597 11.0841 9.64407C10.416 10.3122 9.50988 10.6875 8.56504 10.6875ZM8.56504 9.10417C9.08995 9.10417 9.59336 8.89565 9.96453 8.52448C10.3357 8.15332 10.5442 7.64991 10.5442 7.125C10.5442 6.60009 10.3357 6.09668 9.96453 5.72552C9.59336 5.35435 9.08995 5.14583 8.56504 5.14583C8.04013 5.14583 7.53673 5.35435 7.16556 5.72552C6.79439 6.09668 6.58588 6.60009 6.58588 7.125C6.58588 7.64991 6.79439 8.15332 7.16556 8.52448C7.53673 8.89565 8.04013 9.10417 8.56504 9.10417Z" fill="rgb(224,190,162)" fill-rule="nonzero" />
</svg>
