<svg viewBox="0 0 25 23.1058" xmlns="http://www.w3.org/2000/svg" xmlns:xlink="http://www.w3.org/1999/xlink" width="25.000000" height="23.105804" fill="none" customFrame="#000000">
	<path id="Vector" d="M12.501 1.91119C15.4372 -0.725012 19.9746 -0.637513 22.8033 2.19618C25.6308 5.03113 25.7283 9.54605 23.0983 12.491L12.4985 23.1058L1.90122 12.491C-0.728729 9.54605 -0.629981 5.02363 2.19622 2.19618C5.02741 -0.633763 9.55608 -0.728761 12.501 1.91119ZM21.0334 3.9624C19.1584 2.08494 16.1335 2.00869 14.171 3.77115L12.5023 5.26863L10.8323 3.7724C8.86359 2.00744 5.8449 2.08494 3.96493 3.9649C2.10247 5.82737 2.00872 8.80856 3.72494 10.7785L12.4998 19.5671L21.2746 10.7798C22.9921 8.80856 22.8983 5.83112 21.0334 3.9624Z" fill="rgb(255,255,255)" fill-rule="nonzero" />
</svg>
