<svg viewBox="0 0 15.8333 15.8334" xmlns="http://www.w3.org/2000/svg" xmlns:xlink="http://www.w3.org/1999/xlink" width="15.833344" height="15.833374" fill="none" customFrame="#000000">
	<path id="Vector" d="M7.91658 14.2499C9.59628 14.2499 11.2072 13.5826 12.3949 12.3949C13.5827 11.2072 14.2499 9.59625 14.2499 7.91655C14.2499 6.23684 13.5827 4.62593 12.3949 3.4382C11.2072 2.25047 9.59628 1.58321 7.91658 1.58321C6.23687 1.58321 4.62596 2.25047 3.43823 3.4382C2.2505 4.62593 1.58324 6.23684 1.58324 7.91655C1.58324 9.59625 2.2505 11.2072 3.43823 12.3949C4.62596 13.5826 6.23687 14.2499 7.91658 14.2499ZM7.91658 15.8332C3.5442 15.8332 -9.15527e-05 12.2889 -9.15527e-05 7.91655C-9.15527e-05 3.54417 3.5442 -0.00012207 7.91658 -0.00012207C12.289 -0.00012207 15.8332 3.54417 15.8332 7.91655C15.8332 12.2889 12.289 15.8332 7.91658 15.8332ZM5.45449 8.8428L3.47691 8.22609C3.04941 8.09546 3.04703 7.80096 3.5727 7.58959L11.278 4.61292C11.7253 4.43084 11.9786 4.66121 11.8337 5.23834L10.522 11.4292C10.4301 11.8701 10.1649 11.9754 9.79678 11.772L7.77724 10.2773L6.83595 11.1861C6.73937 11.2795 6.66099 11.3595 6.51216 11.3793C6.36412 11.3999 6.2422 11.3555 6.15274 11.1101L5.46399 8.83725L5.45449 8.8428Z" fill="rgb(224,190,162)" fill-rule="nonzero" />
</svg>
