<svg viewBox="0 0 25 25" xmlns="http://www.w3.org/2000/svg" xmlns:xlink="http://www.w3.org/1999/xlink" width="25.000000" height="25.000000" fill="none" customFrame="#000000">
	<path id="Vector" d="M18.75 5L25 5L25 7.5L22.5 7.5L22.5 23.75C22.5 24.0815 22.3683 24.3995 22.1339 24.6339C21.8995 24.8683 21.5815 25 21.25 25L3.75 25C3.41848 25 3.10054 24.8683 2.86612 24.6339C2.6317 24.3995 2.5 24.0815 2.5 23.75L2.5 7.5L0 7.5L0 5L6.25 5L6.25 1.25C6.25 0.918479 6.3817 0.600537 6.61612 0.366116C6.85054 0.131696 7.16848 5.55112e-16 7.5 0L17.5 0C17.8315 5.55112e-16 18.1495 0.131696 18.3839 0.366116C18.6183 0.600537 18.75 0.918479 18.75 1.25L18.75 5ZM20 7.5L5 7.5L5 22.5L20 22.5L20 7.5ZM8.75 11.25L11.25 11.25L11.25 18.75L8.75 18.75L8.75 11.25ZM13.75 11.25L16.25 11.25L16.25 18.75L13.75 18.75L13.75 11.25ZM8.75 2.5L8.75 5L16.25 5L16.25 2.5L8.75 2.5Z" fill="rgb(224,190,162)" fill-rule="nonzero" />
</svg>
