<svg viewBox="0 0 27 30" xmlns="http://www.w3.org/2000/svg" xmlns:xlink="http://www.w3.org/1999/xlink" width="27.000000" height="30.000000" fill="none" customFrame="#000000">
	<path id="Vector" d="M25.5 30L1.5 30C1.10218 30 0.720644 29.842 0.43934 29.5607C0.158035 29.2794 6.66134e-16 28.8978 0 28.5L0 1.5C0 1.10218 0.158035 0.720644 0.43934 0.43934C0.720644 0.158035 1.10218 6.66134e-16 1.5 0L25.5 0C25.8978 6.66134e-16 26.2794 0.158035 26.5607 0.43934C26.842 0.720644 27 1.10218 27 1.5L27 28.5C27 28.8978 26.842 29.2794 26.5607 29.5607C26.2794 29.842 25.8978 30 25.5 30ZM7.5 7.5L7.5 10.5L19.5 10.5L19.5 7.5L7.5 7.5ZM7.5 13.5L7.5 16.5L19.5 16.5L19.5 13.5L7.5 13.5ZM7.5 19.5L7.5 22.5L15 22.5L15 19.5L7.5 19.5Z" fill="rgb(224,190,162)" fill-rule="nonzero" />
</svg>
