<svg viewBox="0 0 30 24" xmlns="http://www.w3.org/2000/svg" xmlns:xlink="http://www.w3.org/1999/xlink" width="30.000000" height="24.000000" fill="none" customFrame="#000000">
	<path id="Vector" d="M30 9.33333L30 22.6667C30 23.0203 29.842 23.3594 29.5607 23.6095C29.2794 23.8595 28.8978 24 28.5 24L1.5 24C1.10218 24 0.720644 23.8595 0.43934 23.6095C0.158035 23.3594 9.99201e-16 23.0203 0 22.6667L0 9.33333L30 9.33333ZM30 6.66667L0 6.66667L0 1.33333C0 0.979711 0.158035 0.640573 0.43934 0.390524C0.720644 0.140476 1.10218 5.92119e-16 1.5 0L28.5 0C28.8978 5.92119e-16 29.2794 0.140476 29.5607 0.390524C29.842 0.640573 30 0.979711 30 1.33333L30 6.66667ZM19.5 17.3333L19.5 20L25.5 20L25.5 17.3333L19.5 17.3333Z" fill="rgb(224,190,162)" fill-rule="nonzero" />
</svg>
